<svg width="33" height="33" viewBox="0 0 33 33" fill="none" xmlns="http://www.w3.org/2000/svg">
<circle cx="16.5" cy="16.5" r="16.5" fill="#34A1F4"/>
<g clip-path="url(#clip0_129_8516)">
<path d="M14.668 8.96582H17.342V9.41577H18.3077V8.90283C18.3079 8.40503 17.9031 8 17.4055 8H14.6045C14.1069 8 13.7021 8.40503 13.7021 8.90283V9.41577H14.668V8.96582Z" fill="white"/>
<path d="M20.5377 13.2422H11.4717C11.2233 13.2422 11.0278 13.4541 11.0478 13.7018L11.8057 23.0739C11.848 23.597 12.2844 24 12.8087 24H19.2006C19.7249 24 20.1613 23.597 20.2036 23.0737L20.9615 13.7018C20.9816 13.4541 20.7861 13.2422 20.5377 13.2422ZM13.6669 23.0004C13.6568 23.001 13.6467 23.0013 13.6367 23.0013C13.3835 23.0013 13.171 22.8042 13.1552 22.5481L12.6802 14.8541C12.6639 14.5879 12.8664 14.3588 13.1325 14.3424C13.3978 14.3263 13.6279 14.5283 13.6442 14.7947L14.1191 22.4886C14.1356 22.7549 13.9331 22.9839 13.6669 23.0004ZM16.493 22.5184C16.493 22.785 16.2768 23.0012 16.0101 23.0012C15.7434 23.0012 15.5272 22.785 15.5272 22.5184V14.8243C15.5272 14.5576 15.7434 14.3414 16.0101 14.3414C16.2767 14.3414 16.493 14.5576 16.493 14.8243V22.5184ZM19.3292 14.8528L18.8757 22.5468C18.8607 22.8033 18.6478 23.0012 18.3941 23.0012C18.3846 23.0012 18.3749 23.001 18.3653 23.0005C18.0991 22.9847 17.8959 22.7562 17.9117 22.49L18.3651 14.7959C18.3807 14.5297 18.6085 14.3265 18.8754 14.3423C19.1417 14.3579 19.3448 14.5865 19.3292 14.8528Z" fill="white"/>
<path d="M22.2077 11.752L21.8906 10.8013C21.807 10.5507 21.5724 10.3816 21.3081 10.3816H10.7015C10.4374 10.3816 10.2026 10.5507 10.1191 10.8013L9.80199 11.752C9.74083 11.9353 9.82042 12.1223 9.96898 12.2156C10.0295 12.2535 10.1012 12.2764 10.1799 12.2764H21.8298C21.9086 12.2764 21.9803 12.2535 22.0408 12.2155C22.1893 12.1222 22.2689 11.9352 22.2077 11.752Z" fill="white"/>
</g>
<defs>
<clipPath id="clip0_129_8516">
<rect width="16" height="16" fill="white" transform="translate(8 8)"/>
</clipPath>
</defs>
</svg>
